{"title":"The PropheC - Sohni ft. Deep C - [Full Video] [PbTone]","uid":5990223,"size":39759804,"categoryP":"video","categoryS":"music_videos","magnet":"?xt=urn:btih:a1dae2996da4a67f0c5096e96e6a2f99908ee5f2&amp;dn=The+PropheC+-+Sohni+ft.+Deep+C+-+%5BFull+Video%5D+%5BPbTone%5D&amp;tr=udp%3A%2F%2Ftracker.openbittorrent.com%3A80&amp;tr=udp%3A%2F%2Fopen.demonii.com%3A1337&amp;tr=udp%3A%2F%2Ftracker.coppersurfer.tk%3A6969&amp;tr=udp%3A%2F%2Fexodus.desync.com%3A6969","seeders":0,"leechers":1,"uploader":"PBTONE","files":-1,"time":1290816663,"description":"      :::::::::  :::::::::   ::::::::::: ::::::::  ::::    ::: :::::::::: \n     :+:    :+: :+:    :+:      :+:    :+:    :+: :+:+:   :+: :+:         \n    +:+    +:+ +:+    +:+      +:+    +:+    +:+ :+:+:+  +:+ +:+          \n   +#++:++#+  +#++:++#+       +#+    +#+    +:+ +#+ +:+ +#+ +#++:++#      \n  +#+        +#+    +#+      +#+    +#+    +#+ +#+  +#+#+# +#+            \n #+#        #+#    #+#      #+#    #+#    #+# #+#   #+#+# #+#             \n###        #########       ###     ########  ###    #### ########## \n\n\n\n\n\nGeneral\nDeep C - [Full Video] [PbTone]\\[Pb] Sohni ft. Deep C -\nFormat                           : AVI\nFormat/Info                      : Audio Video Interleave\nFile size                        : 37.6 MiB\nDuration                         : 4mn 17s\nOverall bit rate                 : 1 225 Kbps\nWriting application              : MEncoder Sherpya-SVN-r30075-4.2.5\nWriting library                  : MPlayer\n\nVideo\nID                               : 0\nFormat                           : MPEG-4 Visual\nFormat profile                   : Simple@L3\nFormat settings, BVOP            : No\nFormat settings, QPel            : No\nFormat settings, GMC             : No warppoints\nFormat settings, Matrix          : Default (H.263)\nCodec ID                         : XVID\nCodec ID/Hint                    : XviD\nDuration                         : 4mn 17s\nBit rate                         : 1 027 Kbps\nWidth                            : 1 080 pixels\nHeight                           : 720 pixels\nDisplay aspect ratio             : 3:2\nFrame rate                       : 29.970 fps\nColor space                      : YUV\nChroma subsampling               : 4:2:0\nBit depth                        : 8 bits\nScan type                        : Progressive\nCompression mode                 : Lossy\nBits/(Pixel*Frame)               : 0.044\nStream size                      : 31.5 MiB (84%)\nWriting library                  : XviD 1.2.1 (UTC 2008-12-04)\n\nAudio\nID                               : 1\nFormat                           : MPEG Audio\nFormat version                   : Version 1\nFormat profile                   : Layer 3\nMode                             : Joint stereo\nCodec ID                         : 55\nCodec ID/Hint                    : MP3\nDuration                         : 4mn 17s\nBit rate mode                    : Variable\nBit rate                         : 185 Kbps\nChannel(s)                       : 2 channels\nSampling rate                    : 44.1 KHz\nCompression mode                 : Lossy\nStream size                      : 5.68 MiB (15%)\nAlignment                        : Aligned on interleaves\nInterleave, duration             : 26 ms (0.78 video frame)\nInterleave, preload duration     : 539 ms\nWriting library                  : LAME3.98.2\n\n\n\nScreen Shots : http://imagehacks.in/share-583C_4CF0E786.html\n\n\n\n\n","torrent":{"xt":"urn:btih:a1dae2996da4a67f0c5096e96e6a2f99908ee5f2","amp;dn":"The+PropheC+-+Sohni+ft.+Deep+C+-+%5BFull+Video%5D+%5BPbTone%5D","amp;tr":["udp%3A%2F%2Ftracker.openbittorrent.com%3A80","udp%3A%2F%2Fopen.demonii.com%3A1337","udp%3A%2F%2Ftracker.coppersurfer.tk%3A6969","udp%3A%2F%2Fexodus.desync.com%3A6969"],"infoHash":"a1dae2996da4a67f0c5096e96e6a2f99908ee5f2","infoHashBuffer":{"type":"Buffer","data":[161,218,226,153,109,164,166,127,12,80,150,233,110,106,47,153,144,142,229,242]},"announce":[],"urlList":[]}}